<mxfile host="app.diagrams.net" modified="2024-06-05T23:29:23.061Z" agent="Mozilla/5.0 (X11; Linux x86_64) AppleWebKit/537.36 (KHTML, like Gecko) Chrome/114.0.0.0 Safari/537.36" etag="nTf7ygk1gNXk8COyyjfC" version="24.4.14" type="device">
  <diagram name="PÃ¡gina-1" id="1_LPtjE_JyoT5mVib_Cf">
    <mxGraphModel dx="1050" dy="526" grid="1" gridSize="10" guides="1" tooltips="1" connect="1" arrows="1" fold="1" page="1" pageScale="1" pageWidth="827" pageHeight="1169" math="0" shadow="0">
      <root>
        <mxCell id="0" />
        <mxCell id="1" parent="0" />
        <mxCell id="A7YkbAhc_XYbyaw4YN2l-12" value="" style="whiteSpace=wrap;html=1;fillColor=none;strokeWidth=2;dashed=1;" vertex="1" parent="1">
          <mxGeometry x="198" y="90" width="352" height="400" as="geometry" />
        </mxCell>
        <mxCell id="A7YkbAhc_XYbyaw4YN2l-13" value="Private subnet" style="points=[[0,0],[0.25,0],[0.5,0],[0.75,0],[1,0],[1,0.25],[1,0.5],[1,0.75],[1,1],[0.75,1],[0.5,1],[0.25,1],[0,1],[0,0.75],[0,0.5],[0,0.25]];outlineConnect=0;html=1;whiteSpace=wrap;fontSize=12;fontStyle=0;container=1;pointerEvents=0;collapsible=0;recursiveResize=0;shape=mxgraph.aws4.group;grIcon=mxgraph.aws4.group_security_group;grStroke=0;strokeColor=#82b366;fillColor=#d5e8d4;verticalAlign=top;align=left;spacingLeft=30;dashed=0;strokeWidth=3;opacity=30;" vertex="1" parent="1">
          <mxGeometry x="233" y="169" width="297" height="191" as="geometry" />
        </mxCell>
        <mxCell id="A7YkbAhc_XYbyaw4YN2l-16" value="Flask Application Containers" style="text;whiteSpace=wrap;html=1;fontSize=9;align=center;" vertex="1" parent="A7YkbAhc_XYbyaw4YN2l-13">
          <mxGeometry x="197" y="67.93" width="100" height="20" as="geometry" />
        </mxCell>
        <mxCell id="A7YkbAhc_XYbyaw4YN2l-17" value="Flask Application Containers" style="text;whiteSpace=wrap;html=1;fontSize=9;align=center;" vertex="1" parent="A7YkbAhc_XYbyaw4YN2l-13">
          <mxGeometry x="7" y="67.93" width="100" height="20" as="geometry" />
        </mxCell>
        <mxCell id="A7YkbAhc_XYbyaw4YN2l-24" value="" style="rounded=1;arcSize=10;dashed=1;strokeColor=#ff0000;fillColor=none;gradientColor=none;dashPattern=8 4;strokeWidth=2;" vertex="1" parent="A7YkbAhc_XYbyaw4YN2l-13">
          <mxGeometry x="87" y="5" width="130" height="87.5" as="geometry" />
        </mxCell>
        <mxCell id="A7YkbAhc_XYbyaw4YN2l-1" value="" style="verticalLabelPosition=bottom;html=1;verticalAlign=top;align=center;strokeColor=none;fillColor=#00BEF2;shape=mxgraph.azure.load_balancer_generic;pointerEvents=1;" vertex="1" parent="1">
          <mxGeometry x="340" y="70" width="37.5" height="50" as="geometry" />
        </mxCell>
        <mxCell id="A7YkbAhc_XYbyaw4YN2l-2" value="" style="image;aspect=fixed;html=1;points=[];align=center;fontSize=12;image=img/lib/azure2/networking/DNS_Zones.svg;" vertex="1" parent="1">
          <mxGeometry x="400" y="70" width="50" height="50" as="geometry" />
        </mxCell>
        <mxCell id="A7YkbAhc_XYbyaw4YN2l-3" value="" style="image;aspect=fixed;html=1;points=[];align=center;fontSize=12;image=img/lib/azure2/compute/Container_Instances.svg;" vertex="1" parent="1">
          <mxGeometry x="360" y="180" width="64" height="68" as="geometry" />
        </mxCell>
        <mxCell id="A7YkbAhc_XYbyaw4YN2l-4" value="" style="image;aspect=fixed;html=1;points=[];align=center;fontSize=12;image=img/lib/azure2/other/Container_App_Environments.svg;" vertex="1" parent="1">
          <mxGeometry x="250" y="270" width="68" height="68" as="geometry" />
        </mxCell>
        <mxCell id="A7YkbAhc_XYbyaw4YN2l-5" value="" style="image;aspect=fixed;html=1;points=[];align=center;fontSize=12;image=img/lib/azure2/other/Container_App_Environments.svg;" vertex="1" parent="1">
          <mxGeometry x="440" y="270" width="68" height="68" as="geometry" />
        </mxCell>
        <mxCell id="A7YkbAhc_XYbyaw4YN2l-6" value="" style="image;sketch=0;aspect=fixed;html=1;points=[];align=center;fontSize=12;image=img/lib/mscae/Azure_Database_for_PostgreSQL_servers.svg;" vertex="1" parent="1">
          <mxGeometry x="265" y="393" width="38" height="50" as="geometry" />
        </mxCell>
        <mxCell id="A7YkbAhc_XYbyaw4YN2l-7" value="" style="image;sketch=0;aspect=fixed;html=1;points=[];align=center;fontSize=12;image=img/lib/mscae/Azure_Database_for_PostgreSQL_servers.svg;" vertex="1" parent="1">
          <mxGeometry x="455" y="393" width="38" height="50" as="geometry" />
        </mxCell>
        <mxCell id="A7YkbAhc_XYbyaw4YN2l-8" value="" style="verticalLabelPosition=bottom;html=1;verticalAlign=top;align=center;strokeColor=none;fillColor=#00BEF2;shape=mxgraph.azure.azure_active_directory;" vertex="1" parent="1">
          <mxGeometry x="110" y="130" width="37.5" height="39.47" as="geometry" />
        </mxCell>
        <mxCell id="A7YkbAhc_XYbyaw4YN2l-9" value="" style="image;aspect=fixed;html=1;points=[];align=center;fontSize=12;image=img/lib/azure2/security/Key_Vaults.svg;" vertex="1" parent="1">
          <mxGeometry x="110" y="216" width="38" height="38" as="geometry" />
        </mxCell>
        <mxCell id="A7YkbAhc_XYbyaw4YN2l-10" value="" style="image;aspect=fixed;html=1;points=[];align=center;fontSize=12;image=img/lib/azure2/security/Security_Center.svg;" vertex="1" parent="1">
          <mxGeometry x="110" y="310.93" width="38" height="46.14" as="geometry" />
        </mxCell>
        <mxCell id="A7YkbAhc_XYbyaw4YN2l-11" value="" style="verticalLabelPosition=bottom;html=1;verticalAlign=top;align=center;strokeColor=none;fillColor=#00BEF2;shape=mxgraph.azure.virtual_network;pointerEvents=1;shadow=0;" vertex="1" parent="1">
          <mxGeometry x="493" y="90" width="50" height="27.500000000000004" as="geometry" />
        </mxCell>
        <mxCell id="A7YkbAhc_XYbyaw4YN2l-14" value="Private subnet" style="points=[[0,0],[0.25,0],[0.5,0],[0.75,0],[1,0],[1,0.25],[1,0.5],[1,0.75],[1,1],[0.75,1],[0.5,1],[0.25,1],[0,1],[0,0.75],[0,0.5],[0,0.25]];outlineConnect=0;html=1;whiteSpace=wrap;fontSize=12;fontStyle=0;container=1;pointerEvents=0;collapsible=0;recursiveResize=0;shape=mxgraph.aws4.group;grIcon=mxgraph.aws4.group_security_group;grStroke=0;strokeColor=#82b366;fillColor=#d5e8d4;verticalAlign=top;align=left;spacingLeft=30;dashed=0;strokeWidth=3;opacity=30;" vertex="1" parent="1">
          <mxGeometry x="233" y="370" width="290" height="90" as="geometry" />
        </mxCell>
        <mxCell id="A7YkbAhc_XYbyaw4YN2l-18" value="Azure Load Balancer&amp;nbsp; DNS Service" style="text;whiteSpace=wrap;html=1;" vertex="1" parent="1">
          <mxGeometry x="290" y="40" width="220" height="40" as="geometry" />
        </mxCell>
        <mxCell id="A7YkbAhc_XYbyaw4YN2l-19" value="&lt;li style=&quot;font-size: 10px;&quot;&gt;&lt;font style=&quot;font-size: 10px;&quot;&gt;Azure Virtual Network&lt;/font&gt;&lt;/li&gt;&lt;li style=&quot;font-size: 10px;&quot;&gt;&lt;/li&gt;" style="text;whiteSpace=wrap;html=1;fontSize=10;" vertex="1" parent="1">
          <mxGeometry x="440" y="67.5" width="170" height="50" as="geometry" />
        </mxCell>
        <mxCell id="A7YkbAhc_XYbyaw4YN2l-20" value="Private Subnet: Web" style="text;whiteSpace=wrap;html=1;fontSize=9;" vertex="1" parent="1">
          <mxGeometry x="237.5" y="155" width="140" height="40" as="geometry" />
        </mxCell>
        <mxCell id="A7YkbAhc_XYbyaw4YN2l-21" value="Private Subnet: DB" style="text;whiteSpace=wrap;html=1;fontSize=9;" vertex="1" parent="1">
          <mxGeometry x="237.5" y="357" width="140" height="40" as="geometry" />
        </mxCell>
        <mxCell id="A7YkbAhc_XYbyaw4YN2l-22" value="" style="rounded=1;arcSize=10;dashed=1;strokeColor=#ff0000;fillColor=none;gradientColor=none;dashPattern=8 4;strokeWidth=2;" vertex="1" parent="1">
          <mxGeometry x="220" y="240" width="130" height="216.5" as="geometry" />
        </mxCell>
        <mxCell id="A7YkbAhc_XYbyaw4YN2l-23" value="" style="rounded=1;arcSize=10;dashed=1;strokeColor=#ff0000;fillColor=none;gradientColor=none;dashPattern=8 4;strokeWidth=2;" vertex="1" parent="1">
          <mxGeometry x="413" y="240" width="130" height="216.5" as="geometry" />
        </mxCell>
        <mxCell id="A7YkbAhc_XYbyaw4YN2l-26" value="NSG 1" style="text;html=1;align=center;verticalAlign=middle;resizable=0;points=[];autosize=1;strokeColor=none;fillColor=none;fontSize=10;" vertex="1" parent="1">
          <mxGeometry x="480" y="450" width="50" height="30" as="geometry" />
        </mxCell>
        <mxCell id="A7YkbAhc_XYbyaw4YN2l-27" value="NSG 2" style="text;html=1;align=center;verticalAlign=middle;resizable=0;points=[];autosize=1;strokeColor=none;fillColor=none;fontSize=10;" vertex="1" parent="1">
          <mxGeometry x="303" y="450" width="50" height="30" as="geometry" />
        </mxCell>
        <mxCell id="A7YkbAhc_XYbyaw4YN2l-28" value="NSG 3" style="text;html=1;align=center;verticalAlign=middle;resizable=0;points=[];autosize=1;strokeColor=none;fillColor=none;fontSize=10;" vertex="1" parent="1">
          <mxGeometry x="400" y="150" width="50" height="30" as="geometry" />
        </mxCell>
        <mxCell id="A7YkbAhc_XYbyaw4YN2l-29" value="&lt;li&gt;Azure Key Vault (Secrets &amp;amp; Keys)&lt;/li&gt;&lt;li&gt;&lt;/li&gt;" style="text;whiteSpace=wrap;html=1;fontStyle=0;align=center;" vertex="1" parent="1">
          <mxGeometry x="66" y="92.75" width="130" height="20" as="geometry" />
        </mxCell>
        <mxCell id="A7YkbAhc_XYbyaw4YN2l-31" value="&lt;span style=&quot;color: rgb(0, 0, 0); font-family: Helvetica; font-size: 10px; font-style: normal; font-variant-ligatures: normal; font-variant-caps: normal; font-weight: 400; letter-spacing: normal; orphans: 2; text-indent: 0px; text-transform: none; widows: 2; word-spacing: 0px; -webkit-text-stroke-width: 0px; white-space: nowrap; background-color: rgb(251, 251, 251); text-decoration-thickness: initial; text-decoration-style: initial; text-decoration-color: initial; float: none; display: inline !important;&quot;&gt;Azure Active Directory&amp;nbsp;&lt;/span&gt;&lt;div&gt;&lt;span style=&quot;color: rgb(0, 0, 0); font-family: Helvetica; font-size: 10px; font-style: normal; font-variant-ligatures: normal; font-variant-caps: normal; font-weight: 400; letter-spacing: normal; orphans: 2; text-indent: 0px; text-transform: none; widows: 2; word-spacing: 0px; -webkit-text-stroke-width: 0px; white-space: nowrap; background-color: rgb(251, 251, 251); text-decoration-thickness: initial; text-decoration-style: initial; text-decoration-color: initial; float: none; display: inline !important;&quot;&gt;(Identity &amp;amp; Access Management)&lt;/span&gt;&lt;/div&gt;" style="text;whiteSpace=wrap;html=1;align=center;textShadow=0;" vertex="1" parent="1">
          <mxGeometry x="83.75" y="180" width="90" height="60" as="geometry" />
        </mxCell>
        <mxCell id="A7YkbAhc_XYbyaw4YN2l-32" value="&lt;span style=&quot;color: rgb(0, 0, 0); font-family: Helvetica; font-size: 10px; font-style: normal; font-variant-ligatures: normal; font-variant-caps: normal; font-weight: 400; letter-spacing: normal; orphans: 2; text-align: center; text-indent: 0px; text-transform: none; widows: 2; word-spacing: 0px; -webkit-text-stroke-width: 0px; white-space: nowrap; background-color: rgb(251, 251, 251); text-decoration-thickness: initial; text-decoration-style: initial; text-decoration-color: initial; display: inline !important; float: none;&quot;&gt;Securuty Center&lt;/span&gt;" style="text;whiteSpace=wrap;html=1;" vertex="1" parent="1">
          <mxGeometry x="93.75" y="285" width="70" height="20" as="geometry" />
        </mxCell>
      </root>
    </mxGraphModel>
  </diagram>
</mxfile>
